<svg xmlns="http://www.w3.org/2000/svg" xmlns:xlink="http://www.w3.org/1999/xlink" version="1.1" x="0px" y="0px" width="100px" height="100px" viewBox="0 0 100 100" enable-background="new 0 0 100 100" xml:space="preserve">
<g id="Captions" display="none">
	<rect x="-192" display="inline" width="185" height="99"/>
	<rect y="-36" display="inline" width="100" height="30"/>
	<text transform="matrix(1 0 0 1 66 -19.5)" display="inline" fill="#000000" font-family="'Helvetica'" font-size="2.4">http://thenounproject.com</text>
	<text transform="matrix(1 0 0 1 7.166 -24.5)" display="inline"><tspan x="0" y="0" fill="#000000" font-family="'Helvetica-Bold'" font-size="6.1578">The Noun Project</tspan><tspan x="1.12" y="4.8" fill="#000000" font-family="'Helvetica-Bold'" font-size="4">Icon Template</tspan></text>
	
		<text transform="matrix(1 0 0 1 -178.5 10.5)" display="inline" fill="#000000" font-family="'Helvetica-Bold'" font-size="6.1578">Reminders</text>
	<line display="inline" fill="#000000" stroke="#FFFFFF" stroke-miterlimit="10" x1="8" y1="-14.5" x2="18" y2="-14.5"/>
	<line display="inline" fill="#000000" stroke="#FFFFFF" stroke-miterlimit="10" x1="-179" y1="16.5" x2="-162" y2="16.5"/>
	<g display="inline">
		<g>
			<g>
				<rect x="-170.802" y="31.318" fill="#000000" width="8.721" height="8.642"/>
				<path fill="#000000" d="M-164.455,42.312h4.747v-4.703h-4.747V42.312z M-159.266,42.749h-5.63V37.17h5.63V42.749      L-159.266,42.749z M-166.221,44.062h8.279v-8.203h-8.279V44.062L-166.221,44.062z M-157.5,44.5h-9.163v-9.079h9.163V44.5      L-157.5,44.5z"/>
				<polygon fill="#000000" points="-166.149,44.133 -166.292,43.991 -158.013,35.787 -157.871,35.929     "/>
			</g>
		</g>
	</g>
	<rect x="-179" y="58" display="inline" fill="none" width="35" height="32.5"/>
	<text transform="matrix(1 0 0 1 -179 60.1572)" display="inline"><tspan x="0" y="0" fill="#000000" font-family="'Helvetica-Bold'" font-size="3">Strokes</tspan><tspan x="0" y="5" fill="#000000" font-family="'Helvetica'" font-size="2.4">Try to keep strokes at 4px</tspan><tspan x="0" y="10" fill="#000000" font-family="'Helvetica'" font-size="2.4">Minimum stroke weight is 2px</tspan><tspan x="0" y="14.5" fill="#000000" font-family="'Helvetica'" font-size="2.4">For thicker strokes use even </tspan><tspan x="0" y="17.5" fill="#000000" font-family="'Helvetica'" font-size="2.4">numbers: 6px, 8px etc.</tspan><tspan x="0" y="22" fill="#000000" font-family="'Helvetica-Bold'" font-size="2.4">Remember to expand strokes </tspan><tspan x="0" y="25" fill="#000000" font-family="'Helvetica-Bold'" font-size="2.4">before saving as an SVG </tspan></text>
	<rect x="-136.5" y="58" display="inline" fill="none" width="35" height="32.5"/>
	<text transform="matrix(1 0 0 1 -136.5 60.1572)" display="inline"><tspan x="0" y="0" fill="#000000" font-family="'Helvetica-Bold'" font-size="3">Size</tspan><tspan x="0" y="5" fill="#000000" font-family="'Helvetica'" font-size="2.4">Cannot be wider or taller than </tspan><tspan x="0" y="8.5" fill="#000000" font-family="'Helvetica'" font-size="2.4">100px (artboard size)</tspan><tspan x="0" y="13.5" fill="#000000" font-family="'Helvetica'" font-size="2.4">Scale your icon to fill as much of </tspan><tspan x="0" y="16.5" fill="#000000" font-family="'Helvetica'" font-size="2.4">the artboard as possible</tspan></text>
	<rect x="-94" y="58" display="inline" fill="none" width="35" height="32.5"/>
	<text transform="matrix(1 0 0 1 -94 60.1572)" display="inline"><tspan x="0" y="0" fill="#000000" font-family="'Helvetica-Bold'" font-size="3">Ungroup</tspan><tspan x="0" y="5" fill="#000000" font-family="'Helvetica'" font-size="2.4">If your design has more than one </tspan><tspan x="0" y="8" fill="#000000" font-family="'Helvetica'" font-size="2.4">shape, make sure to ungroup</tspan></text>
	<rect x="-50" y="58" display="inline" fill="none" width="35" height="32.5"/>
	<text transform="matrix(1 0 0 1 -50 60.1572)" display="inline"><tspan x="0" y="0" fill="#000000" font-family="'Helvetica-Bold'" font-size="3">Save as</tspan><tspan x="0" y="5" fill="#000000" font-family="'Helvetica'" font-size="2.4">Save as .SVG and make sure </tspan><tspan x="0" y="8" fill="#000000" font-family="'Helvetica'" font-size="2.4">&#8220;Use Artboards&#8221; is checked</tspan></text>
	
		<text transform="matrix(1.0074 0 0 1 -125.542 30.5933)" display="inline" fill="#000000" font-family="'Helvetica'" font-size="2.5731">100px</text>
	
		<text transform="matrix(1.0074 0 0 1 -41 39)" display="inline" fill="#000000" font-family="'Helvetica-Bold'" font-size="5.1462">.SVG</text>
	<rect x="-126.514" y="34.815" display="inline" fill="#000000" width="10.261" height="10.185"/>
	<rect x="-126.477" y="31.766" display="inline" fill="#000000" width="0.522" height="2.337"/>
	<rect x="-116.812" y="31.766" display="inline" fill="#000000" width="0.523" height="2.337"/>
	<rect x="-127" y="32.337" display="inline" fill="#000000" width="11.233" height="0.572"/>
	<g display="inline">
		<rect x="-83.805" y="33.844" fill="#000000" width="10.305" height="10.156"/>
		<rect x="-76.809" y="28.707" fill="#000000" width="3.308" height="3.261"/>
	</g>
	<rect x="-178.5" y="22.5" display="inline" fill="#000000" stroke="#FFFFFF" stroke-miterlimit="10" width="30" height="30"/>
	<rect x="-136.5" y="22.5" display="inline" fill="#000000" stroke="#FFFFFF" stroke-miterlimit="10" width="30" height="30"/>
	<rect x="-93.5" y="22.5" display="inline" fill="#000000" stroke="#FFFFFF" stroke-miterlimit="10" width="30" height="30"/>
	<rect x="-49.5" y="22.5" display="inline" fill="#000000" stroke="#FFFFFF" stroke-miterlimit="10" width="30" height="30"/>
</g>
<g id="Your_Icon">
	<path fill="#000000" d="M49.95,12.098C29.024,12.098,12,29.123,12,50.048C12,70.975,29.024,88,49.95,88   C70.876,88,87.9,70.975,87.9,50.048C87.9,29.123,70.876,12.098,49.95,12.098z M70.767,23.345c-3.028,0-7.587,0.421-13.211,2.202   c-1.977-2.534-3.03-4.977-3.032-7.097c0-0.885,0.184-1.54,0.337-1.936c0.052-0.129,0.099-0.23,0.143-0.316   c6.121,0.91,11.715,3.449,16.333,7.157C71.146,23.352,70.959,23.345,70.767,23.345z M84.075,47.553   c-1.149-1.496-2.399-2.802-3.415-3.776c-2.106-2.015-4.416-3.765-6.335-4.798c-3.075-1.656-9.258-4.987-15.078-11.431   c4.886-1.439,8.848-1.795,11.536-1.796c0.718,0,1.414,0.024,2.132,0.073c0.282,0.019,0.516,0.039,0.706,0.055   c0.2,0.017,0.355,0.03,0.474,0.035l0.104,0.005C79.811,31.558,83.466,39.14,84.075,47.553z M52.521,15.929   c-0.217,0.638-0.404,1.476-0.404,2.521c-0.001,1.771,0.559,4.511,3.037,7.921c-1.725,0.635-3.532,1.396-5.417,2.308   c-5.021-6.312-9.124-9.323-11.662-10.729c3.701-1.374,7.701-2.126,11.874-2.126C50.817,15.822,51.672,15.866,52.521,15.929z    M35.111,19.21c1.238,0.412,5.881,2.41,12.445,10.577c-2.374,1.263-4.854,2.769-7.417,4.553c-0.397-0.479-0.811-0.947-1.254-1.395   c-2.529-2.559-5.644-3.856-9.279-3.856c-2.519,0.001-5.199,0.625-7.965,1.854c-0.037,0.016-0.069,0.032-0.106,0.049   C24.922,25.958,29.608,21.869,35.111,19.21z M19.19,35.056l0.41-0.282c0.052-0.036,1.292-0.883,3.196-1.71   c1.644-0.716,4.158-1.568,6.808-1.568c3,0.005,5.476,1.033,7.569,3.143c0.356,0.359,0.688,0.731,1.008,1.107   c-0.569,0.422-1.141,0.853-1.717,1.303c-7.136,5.57-12.292,11.522-15.324,17.689c-1.7,3.458-2.434,6.413-2.735,8.586   c-1.725-4.085-2.68-8.57-2.68-13.276C15.724,44.674,16.973,39.586,19.19,35.056z M20.775,67.921l0.027-0.004l-0.116-0.726   c-0.003-0.019-0.07-0.45-0.07-1.231c0-1.756,0.348-5.411,2.683-10.159c2.871-5.837,7.798-11.508,14.646-16.856   c0.562-0.438,1.118-0.857,1.672-1.268c0.79,1.227,1.429,2.542,1.921,3.972c0.842,2.451,1.251,5.198,1.251,8.4   c0.001,4.953-1.007,10.379-1.993,15.031c-0.723,3.419-1.089,6.708-1.089,9.776c0,3.812,0.559,6.524,1.035,8.15   C32.346,80.657,25.242,75.187,20.775,67.921z M43.516,83.66c-0.271-0.618-1.403-3.523-1.403-8.804c0-2.903,0.349-6.025,1.039-9.278   c1.01-4.781,2.043-10.364,2.044-15.53c0-3.472-0.453-6.475-1.383-9.181c-0.561-1.633-1.315-3.165-2.244-4.59   c2.598-1.804,5.101-3.307,7.489-4.557c1.421,1.893,2.916,4.057,4.48,6.553c4.771,7.617,8.488,14.809,11.052,21.375   c2.469,6.323,3.772,11.941,3.771,16.244c0,1.145-0.097,2.201-0.275,3.165c-5.263,3.302-11.478,5.219-18.134,5.219   C47.75,84.275,45.601,84.059,43.516,83.66z M70.723,77.226c0.026-0.436,0.042-0.878,0.042-1.334   c-0.001-4.67-1.325-10.43-3.935-17.119c-2.615-6.701-6.402-14.027-11.254-21.777c-1.498-2.394-2.947-4.501-4.335-6.366   c1.928-0.915,3.77-1.666,5.514-2.278c6.293,7.272,13.105,10.954,16.431,12.744c1.712,0.922,3.886,2.574,5.812,4.419   c2.156,2.064,3.899,4.252,4.911,6.16l0.204,0.386C83.515,62.304,78.395,71.347,70.723,77.226z"/>
</g>
</svg>